<svg width="1366" height="296" viewBox="0 0 1366 296" fill="none" xmlns="http://www.w3.org/2000/svg">
<rect y="251.652" width="1366" height="44.2874" fill="#766354"/>
<rect y="251.652" width="1366" height="13.2862" fill="#907E72"/>
<path d="M62.9942 130.31C-15.2518 149.929 0.248063 183.397 0.248063 183.397V251.652H1366.25V183.397C1366.25 183.397 1330.42 120.366 1253.47 130.31C1208.75 136.089 1161.75 150.967 1161.75 150.967C1161.75 150.967 1027.1 73.9869 926.748 88.9228C812.84 105.877 698.935 183.397 698.935 183.397C698.935 183.397 595.248 129.024 501.369 130.31C422.615 131.388 314.827 183.397 314.827 183.397C314.827 183.397 159.653 106.073 62.9942 130.31Z" fill="#D2D522"/>
<path d="M82.2481 155.267C-14.752 155.267 0.4959 197.436 0.4959 197.436V251.652H1366.25V197.436C1366.25 197.436 1330.18 171.095 1253.25 178.993C1208.53 183.584 1130.75 217.398 1130.75 217.398C1130.75 217.398 1067.08 128.723 966.748 140.587C813.748 158.679 691.748 229.162 691.748 229.162C691.748 229.162 595.388 154.246 501.526 155.267C422.786 156.124 413.248 217.398 413.248 217.398C413.248 217.398 182.814 155.267 82.2481 155.267Z" fill="#BEC22D"/>
<ellipse cx="945.882" cy="97.5213" rx="21.2341" ry="9.81577" fill="#AEAE2A"/>
<path d="M928.57 69.6475C928.57 68.7812 921.11 61.1046 917.38 57.3746H926.043C926.043 57.3746 930.014 60.9843 932.901 62.0672C935.789 63.1501 940.482 57.3746 940.482 57.3746L948.062 56.2917C948.062 56.2917 936.872 65.3159 935.428 67.4817C933.984 69.6475 939.038 96.72 939.038 96.72H928.57V69.6475Z" fill="#70351D"/>
<ellipse cx="931.097" cy="40.4093" rx="36.0966" ry="18.4093" fill="#52832A"/>
<ellipse cx="1268" cy="188.5" rx="53" ry="24.5" fill="#AEAE2A"/>
<path d="M1224.79 118.927C1224.79 116.765 1206.17 97.6046 1196.86 88.2946H1218.48C1218.48 88.2946 1228.39 97.3043 1235.6 100.007C1242.81 102.71 1254.52 88.2946 1254.52 88.2946L1273.44 85.5917C1273.44 85.5917 1245.51 108.116 1241.91 113.522C1238.3 118.927 1250.92 186.5 1250.92 186.5H1224.79V118.927Z" fill="#70351D"/>
<ellipse cx="1231.1" cy="45.9493" rx="90.0966" ry="45.9493" fill="#52832A"/>
</svg>
