<svg width="1366" height="623" viewBox="0 0 1366 623" fill="none" xmlns="http://www.w3.org/2000/svg">
<g clip-path="url(#clip0_102_4)">
<rect width="1366" height="623" fill="url(#paint0_linear_102_4)"/>
<path d="M1151.25 122.514C1151.25 98.7655 1187.98 98.7655 1187.98 98.7655C1187.98 98.7655 1201.71 84.4097 1222.58 84.4097C1238.16 84.4097 1259.61 98.7655 1259.61 98.7655C1270.39 87.6723 1276.45 80.4945 1295.97 80.4944C1315.5 80.4944 1321.44 95.695 1335.7 98.7655C1359.93 103.986 1365.61 115.252 1365.99 134.002C1366.45 156.285 1342.78 165.642 1320.21 169.892C1298.48 173.984 1265.67 154.884 1265.67 154.884C1265.67 154.884 1234.04 169.429 1214.5 164.019C1183.9 155.545 1180.33 143.772 1180.33 143.772C1180.33 143.772 1151.25 139.817 1151.25 122.514Z" fill="white"/>
<path d="M690.664 184.307C700.126 162.4 723.309 164.019 723.309 164.019C723.309 164.019 737.039 149.663 757.911 149.663C773.486 149.663 793.188 159.59 793.188 159.59C803.961 148.497 811.774 145.748 831.299 145.748C850.824 145.748 856.767 160.949 871.023 164.019C895.261 169.239 900.935 180.506 901.321 199.256C901.779 221.538 878.111 230.895 855.537 235.145C833.804 239.237 799.819 227.316 799.819 227.316C799.819 227.316 765.289 237.175 745.752 231.765C715.148 223.29 697.805 214.463 697.805 214.463C697.805 214.463 681.483 205.564 690.664 184.307Z" fill="white"/>
<path d="M-1 78.02C-1.00017 54.271 35.7254 54.271 35.7254 54.271C35.7254 54.271 49.4562 39.9152 70.3281 39.9152C85.9036 39.9152 107.359 54.271 107.359 54.271C118.132 43.1779 124.191 36 143.717 36C163.242 36 169.184 51.2006 183.441 54.271C207.679 59.4913 213.353 70.7578 213.739 89.508C214.197 111.791 190.529 121.147 167.955 125.397C146.222 129.489 113.419 110.389 113.419 110.389C113.419 110.389 81.7862 124.935 62.2487 119.525C31.6448 111.05 28.0743 99.2772 28.0743 99.2772C28.0743 99.2772 -0.999875 95.3223 -1 78.02Z" fill="white"/>
</g>
<defs>
<linearGradient id="paint0_linear_102_4" x1="683" y1="0" x2="683" y2="623" gradientUnits="userSpaceOnUse">
<stop stop-color="#C2F0FF"/>
<stop offset="1" stop-color="#E6FEFF"/>
</linearGradient>
<clipPath id="clip0_102_4">
<rect width="1366" height="623" fill="white"/>
</clipPath>
</defs>
</svg>
