<svg width="162" height="225" viewBox="0 0 162 225" fill="none" xmlns="http://www.w3.org/2000/svg">
<path d="M74.6689 40.8253L69.373 29.6338L63.7246 29.3043L64.3539 41.9597L74.6689 40.8253Z" fill="#EBA38B"/>
<path d="M64.2538 39.9478L69.8924 30.7072L63.7245 29.3043L64.2538 39.9478Z" fill="#C58975"/>
<path d="M72.1493 30.4438C69.2688 30.9434 65.6639 30.2359 62.6856 28.8512C61.195 28.1582 59.8548 27.2926 58.8368 26.3169C57.8197 25.3421 57.1159 24.249 56.9168 23.1011C56.1294 18.5612 60.2079 14.1181 65.94 13.1239C68.7983 12.6282 71.4411 12.6993 73.4731 13.4629C75.5126 14.2294 76.9366 15.695 77.3307 17.9675C77.717 20.1943 77.8755 23.0495 77.2159 25.4786C76.5545 27.9143 75.0633 29.9384 72.1493 30.4438Z" fill="#EBA38B" stroke="#EBA38B" stroke-width="0.276868"/>
<path d="M62.5006 22.0196C62.5802 22.029 62.6234 22.0914 62.5971 22.1591C62.5708 22.2268 62.485 22.2741 62.4055 22.2647L62.5006 22.0196ZM61.7523 24.4828C61.8087 24.5243 61.8041 24.6019 61.7422 24.6563C61.6802 24.7106 61.5842 24.7211 61.5278 24.6796L61.7523 24.4828ZM62.4055 22.2647C61.6613 22.1769 61.1168 22.446 60.9311 22.8302C60.7379 23.2297 60.8814 23.8427 61.7523 24.4828L61.5278 24.6796C60.628 24.0182 60.3894 23.3186 60.6511 22.7775C60.9201 22.221 61.6675 21.9213 62.5006 22.0196L62.4055 22.2647Z" fill="#D9876B"/>
<g filter="url(#filter0_f_103_11)">
<circle r="2.07651" transform="matrix(-0.98529 0.170888 0.170888 0.98529 73.9981 25.104)" fill="#FF8888" fill-opacity="0.72"/>
</g>
<path d="M83.5419 65.8259L89.7044 44.5618C90.0088 44.8631 129.356 90.8479 130.281 91.8906C130.281 91.8906 135.473 89.4425 137.994 91.1193C140.868 93.0317 142.291 98.1185 139.536 99.8236C136.782 101.529 140.307 94.3333 134.578 93.6535C132.264 93.379 132.442 96.3558 130.281 97.1793C121.026 100.705 86.1027 68.3424 83.5419 65.8259Z" fill="#EBA38B"/>
<ellipse rx="4.75189" ry="4.57456" transform="matrix(-1 0 0 1 133.7 97.8331)" fill="#575864"/>
<ellipse rx="9.86932" ry="9.50101" transform="matrix(-1 0 0 1 144.842 209.265)" fill="#575757"/>
<ellipse rx="9.86932" ry="9.50101" transform="matrix(-1 0 0 1 17.3785 209.265)" fill="#575757"/>
<path d="M17.8594 216.666C24.2498 216.005 25.6823 209.063 25.6823 209.063" stroke="#919191" stroke-width="0.553735" stroke-linecap="round"/>
<path d="M16.66 201.681C12.1297 201.351 10.477 205.868 10.477 205.868" stroke="#919191" stroke-width="0.553735" stroke-linecap="round"/>
<path d="M17.6245 215.089C22.0714 214.437 23.2786 210.308 23.2786 210.308" stroke="#919191" stroke-width="0.553735" stroke-linecap="round"/>
<rect width="2.81511" height="23.6376" transform="matrix(0 -1 -1 0 37.7437 211.261)" fill="#575757"/>
<path d="M30.2066 207.627C30.2066 205.137 29.289 202.715 27.5926 200.728C25.8961 198.74 23.5131 197.294 20.804 196.61C18.095 195.925 15.2072 196.038 12.5776 196.933" stroke="#575757" stroke-width="4.15301" stroke-linecap="round"/>
<path d="M130.009 208.274C130.009 205.644 130.978 203.085 132.771 200.985C134.563 198.885 137.081 197.358 139.943 196.635C142.805 195.911 145.856 196.031 148.634 196.976" stroke="#575757" stroke-width="4.15301" stroke-linecap="round"/>
<rect width="103.323" height="8.21075" rx="4.10537" transform="matrix(-1 0 0 1 132.116 206.332)" fill="#575757"/>
<ellipse rx="3.43358" ry="3.30544" transform="matrix(-1 0 0 1 17.2974 209.283)" fill="white"/>
<path d="M145.456 201.24C151.846 201.901 153.279 208.842 153.279 208.842" stroke="#919191" stroke-width="0.553735" stroke-linecap="round"/>
<path d="M144.257 216.224C139.727 216.555 138.074 212.037 138.074 212.037" stroke="#919191" stroke-width="0.553735" stroke-linecap="round"/>
<path d="M145.221 202.816C149.668 203.468 150.875 207.598 150.875 207.598" stroke="#919191" stroke-width="0.553735" stroke-linecap="round"/>
<ellipse rx="3.43358" ry="3.30544" transform="matrix(-1 0 0 1 144.447 209.283)" fill="white"/>
<path d="M130.803 100.176H136.82L145.905 200.813C145.905 200.813 144.789 200.728 144.017 200.813C143.165 200.907 140.36 200.813 140.36 200.813L130.803 100.176Z" fill="#575757"/>
<path d="M144.391 208.43L143.083 196.576" stroke="#575757" stroke-width="2.76868" stroke-linecap="round"/>
<path d="M26.4115 170.457L46.4147 154.63L63.8886 170.457L48.2842 178.303L46.4146 188.5L39.7412 192.681L26.4115 170.457Z" fill="#EBA38B"/>
<path d="M34.6491 166.505C33.5281 165.396 33.7353 165.047 35.0529 163.855C34.9121 163.577 34.8398 163.09 34.8398 163.09C29.3524 166.394 21.2984 174.706 22.0861 175.841C27.9152 184.242 39.0869 198.704 43.9177 205.48C48.6606 206.29 52.8626 201.305 52.6686 199.997C52.2348 197.073 49.1574 182.175 49.1574 182.175C49.1574 182.175 36.0462 174.969 35.8255 172.809C35.1212 171.42 36.0502 167.892 34.6491 166.505Z" fill="#414141"/>
<path fill-rule="evenodd" clip-rule="evenodd" d="M23.3961 173.091C22.3235 174.42 21.7469 175.428 21.986 175.773C25.3607 180.645 30.5274 187.552 35.2162 193.82C38.622 198.373 41.7757 202.59 43.8072 205.443C44.9186 205.633 46.0005 205.504 47.0031 205.179L23.3961 173.091Z" fill="white"/>
<path d="M66.0034 197.545L66.0034 169.305L90.6144 168.589L84.6778 188.294L92.9615 193.597L91.7991 201.385L66.0034 197.545Z" fill="#EBA38B"/>
<path d="M68.02 190.699C66.4557 190.897 66.3084 190.518 66.1835 188.746C65.8778 188.685 65.4496 188.441 65.4496 188.441C64.6646 194.799 66.2362 206.265 67.6156 206.345C77.8231 206.941 96.0975 207.073 104.41 207.452C107.974 204.219 106.644 197.836 105.495 197.182C102.926 195.719 89.3029 188.949 89.3029 188.949C89.3029 188.949 75.5422 194.821 73.7069 193.663C72.1785 193.359 69.9754 190.451 68.02 190.699Z" fill="#414141"/>
<path fill-rule="evenodd" clip-rule="evenodd" d="M66.2598 203.618C66.6441 205.282 67.0817 206.358 67.5007 206.383C73.4165 206.732 82.0402 206.928 89.8661 207.106C95.5506 207.235 100.814 207.354 104.314 207.516C105.149 206.759 105.715 205.828 106.077 204.838L66.2598 203.618Z" fill="white"/>
<path d="M77.5582 97.2938L103.649 95.8992C106.593 111.489 111.546 133.204 98.9597 151.324C90.5228 163.47 62.4045 177.057 56.8704 175.454L41.5553 157.384L71.4144 137.441L77.5582 97.2938Z" fill="#1A72AB"/>
<path d="M65.998 96.1208L103.807 96.1208C108.725 122.161 89.4836 178.319 89.4836 178.319C89.4836 178.319 80.5037 183.215 65.998 178.319L65.998 164.766L65.7956 125.573L65.998 96.1208Z" fill="#3297D9"/>
<path d="M65.9984 96.1207L103.808 96.1207C57.4212 105.929 65.9984 103.946 65.9984 103.946L65.9984 96.1207Z" fill="#1A72AB"/>
<path d="M82.7817 98.5649L74.4479 179.713" stroke="black" stroke-opacity="0.14" stroke-width="1.10747" stroke-linecap="round"/>
<path d="M73.6528 35.0562L76.4472 38.1962C79.577 46.8965 105.924 94.9937 104.135 95.6217C102.347 96.2496 70.635 97.2834 63.4811 96.5638C63.4811 96.5638 57.311 50.2877 62.7919 35.0562H73.6528Z" fill="#F8F8F8"/>
<path d="M96.9692 77.7858L104.246 95.6218L79.3293 65.1821L96.9692 77.7858Z" fill="#B8B3B5"/>
<path d="M81.3696 38.0692C77.3164 35.2357 66.7551 35.6174 64.4845 35.4292L78.5792 64.5805L94.9929 78.4941L104.248 57.3393C93.5078 48.2689 85.4227 40.9028 81.3696 38.0692Z" fill="#F8F8F8"/>
<path d="M76.9394 16.4736L74.7676 15.1278C74.7676 15.1278 72.2433 23.2904 68.7162 23.51C60.1818 24.0413 69.5796 30.3363 65.9567 30.9762C62.7834 31.5366 56.9806 25.9768 56.9806 25.9768C56.9806 25.9768 60.5462 39.0746 54.883 42.7311C49.2067 46.396 59.5685 56.3568 58.6681 61.5707C56.4414 74.4655 45.5317 69.8877 45.5317 69.8877C44.1638 69.6809 40.5994 67.8405 40.0841 63.845C39.4398 58.8505 44.1568 56.4389 44.899 52.3129C45.7095 47.8068 41.9502 42.8276 43.0886 38.393C44.9424 31.1716 57.1522 29.4534 56.3149 24.6257C57.3885 12.8951 60.3173 10.2584 68.2631 9.99029C77.9746 9.66266 76.9394 16.4736 76.9394 16.4736Z" fill="#202B52"/>
<ellipse rx="1.7941" ry="0.624603" transform="matrix(-0.813549 -0.581497 -0.581496 0.813549 56.6931 26.15)" fill="#3297D9"/>
<path d="M160 219.64C37.831 219.64 3.7629 219.64 2 219.64" stroke="black" stroke-opacity="0.1" stroke-width="2.76868" stroke-linecap="round"/>
<defs>
<filter id="filter0_f_103_11" x="71.3674" y="22.4734" width="5.26128" height="5.26116" filterUnits="userSpaceOnUse" color-interpolation-filters="sRGB">
<feFlood flood-opacity="0" result="BackgroundImageFix"/>
<feBlend mode="normal" in="SourceGraphic" in2="BackgroundImageFix" result="shape"/>
<feGaussianBlur stdDeviation="0.276868" result="effect1_foregroundBlur_103_11"/>
</filter>
</defs>
</svg>
